<svg xmlns="http://www.w3.org/2000/svg" width="1200" height="720" viewBox="0 0 1200 720" role="img" aria-label="API, security, testing, and capstone">
  <rect width="1200" height="720" fill="#fbfbfa"/>
  <g fill="#e4e4e7"><circle cx="20" cy="20" r="1.6"/><circle cx="60" cy="20" r="1.6"/><circle cx="100" cy="20" r="1.6"/><circle cx="140" cy="20" r="1.6"/><circle cx="180" cy="20" r="1.6"/><circle cx="220" cy="20" r="1.6"/><circle cx="260" cy="20" r="1.6"/><circle cx="300" cy="20" r="1.6"/><circle cx="340" cy="20" r="1.6"/><circle cx="380" cy="20" r="1.6"/><circle cx="420" cy="20" r="1.6"/><circle cx="460" cy="20" r="1.6"/><circle cx="500" cy="20" r="1.6"/><circle cx="540" cy="20" r="1.6"/><circle cx="580" cy="20" r="1.6"/><circle cx="620" cy="20" r="1.6"/><circle cx="660" cy="20" r="1.6"/><circle cx="700" cy="20" r="1.6"/><circle cx="740" cy="20" r="1.6"/><circle cx="780" cy="20" r="1.6"/><circle cx="820" cy="20" r="1.6"/><circle cx="860" cy="20" r="1.6"/><circle cx="900" cy="20" r="1.6"/><circle cx="940" cy="20" r="1.6"/><circle cx="980" cy="20" r="1.6"/><circle cx="1020" cy="20" r="1.6"/><circle cx="1060" cy="20" r="1.6"/><circle cx="1100" cy="20" r="1.6"/><circle cx="1140" cy="20" r="1.6"/><circle cx="1180" cy="20" r="1.6"/><circle cx="20" cy="64" r="1.6"/><circle cx="60" cy="64" r="1.6"/><circle cx="100" cy="64" r="1.6"/><circle cx="140" cy="64" r="1.6"/><circle cx="180" cy="64" r="1.6"/><circle cx="220" cy="64" r="1.6"/><circle cx="260" cy="64" r="1.6"/><circle cx="300" cy="64" r="1.6"/><circle cx="340" cy="64" r="1.6"/><circle cx="380" cy="64" r="1.6"/><circle cx="420" cy="64" r="1.6"/><circle cx="460" cy="64" r="1.6"/><circle cx="500" cy="64" r="1.6"/><circle cx="540" cy="64" r="1.6"/><circle cx="580" cy="64" r="1.6"/><circle cx="620" cy="64" r="1.6"/><circle cx="660" cy="64" r="1.6"/><circle cx="700" cy="64" r="1.6"/><circle cx="740" cy="64" r="1.6"/><circle cx="780" cy="64" r="1.6"/><circle cx="820" cy="64" r="1.6"/><circle cx="860" cy="64" r="1.6"/><circle cx="900" cy="64" r="1.6"/><circle cx="940" cy="64" r="1.6"/><circle cx="980" cy="64" r="1.6"/><circle cx="1020" cy="64" r="1.6"/><circle cx="1060" cy="64" r="1.6"/><circle cx="1100" cy="64" r="1.6"/><circle cx="1140" cy="64" r="1.6"/><circle cx="1180" cy="64" r="1.6"/><circle cx="20" cy="108" r="1.6"/><circle cx="60" cy="108" r="1.6"/><circle cx="100" cy="108" r="1.6"/><circle cx="140" cy="108" r="1.6"/><circle cx="180" cy="108" r="1.6"/><circle cx="220" cy="108" r="1.6"/><circle cx="260" cy="108" r="1.6"/><circle cx="300" cy="108" r="1.6"/><circle cx="340" cy="108" r="1.6"/><circle cx="380" cy="108" r="1.6"/><circle cx="420" cy="108" r="1.6"/><circle cx="460" cy="108" r="1.6"/><circle cx="500" cy="108" r="1.6"/><circle cx="540" cy="108" r="1.6"/><circle cx="580" cy="108" r="1.6"/><circle cx="620" cy="108" r="1.6"/><circle cx="660" cy="108" r="1.6"/><circle cx="700" cy="108" r="1.6"/><circle cx="740" cy="108" r="1.6"/><circle cx="780" cy="108" r="1.6"/><circle cx="820" cy="108" r="1.6"/><circle cx="860" cy="108" r="1.6"/><circle cx="900" cy="108" r="1.6"/><circle cx="940" cy="108" r="1.6"/><circle cx="980" cy="108" r="1.6"/><circle cx="1020" cy="108" r="1.6"/><circle cx="1060" cy="108" r="1.6"/><circle cx="1100" cy="108" r="1.6"/><circle cx="1140" cy="108" r="1.6"/><circle cx="1180" cy="108" r="1.6"/><circle cx="20" cy="152" r="1.6"/><circle cx="60" cy="152" r="1.6"/><circle cx="100" cy="152" r="1.6"/><circle cx="140" cy="152" r="1.6"/><circle cx="180" cy="152" r="1.6"/><circle cx="220" cy="152" r="1.6"/><circle cx="260" cy="152" r="1.6"/><circle cx="300" cy="152" r="1.6"/><circle cx="340" cy="152" r="1.6"/><circle cx="380" cy="152" r="1.6"/><circle cx="420" cy="152" r="1.6"/><circle cx="460" cy="152" r="1.6"/><circle cx="500" cy="152" r="1.6"/><circle cx="540" cy="152" r="1.6"/><circle cx="580" cy="152" r="1.6"/><circle cx="620" cy="152" r="1.6"/><circle cx="660" cy="152" r="1.6"/><circle cx="700" cy="152" r="1.6"/><circle cx="740" cy="152" r="1.6"/><circle cx="780" cy="152" r="1.6"/><circle cx="820" cy="152" r="1.6"/><circle cx="860" cy="152" r="1.6"/><circle cx="900" cy="152" r="1.6"/><circle cx="940" cy="152" r="1.6"/><circle cx="980" cy="152" r="1.6"/><circle cx="1020" cy="152" r="1.6"/><circle cx="1060" cy="152" r="1.6"/><circle cx="1100" cy="152" r="1.6"/><circle cx="1140" cy="152" r="1.6"/><circle cx="1180" cy="152" r="1.6"/><circle cx="20" cy="196" r="1.6"/><circle cx="60" cy="196" r="1.6"/><circle cx="100" cy="196" r="1.6"/><circle cx="140" cy="196" r="1.6"/><circle cx="180" cy="196" r="1.6"/><circle cx="220" cy="196" r="1.6"/><circle cx="260" cy="196" r="1.6"/><circle cx="300" cy="196" r="1.6"/><circle cx="340" cy="196" r="1.6"/><circle cx="380" cy="196" r="1.6"/><circle cx="420" cy="196" r="1.6"/><circle cx="460" cy="196" r="1.6"/><circle cx="500" cy="196" r="1.6"/><circle cx="540" cy="196" r="1.6"/><circle cx="580" cy="196" r="1.6"/><circle cx="620" cy="196" r="1.6"/><circle cx="660" cy="196" r="1.6"/><circle cx="700" cy="196" r="1.6"/><circle cx="740" cy="196" r="1.6"/><circle cx="780" cy="196" r="1.6"/><circle cx="820" cy="196" r="1.6"/><circle cx="860" cy="196" r="1.6"/><circle cx="900" cy="196" r="1.6"/><circle cx="940" cy="196" r="1.6"/><circle cx="980" cy="196" r="1.6"/><circle cx="1020" cy="196" r="1.6"/><circle cx="1060" cy="196" r="1.6"/><circle cx="1100" cy="196" r="1.6"/><circle cx="1140" cy="196" r="1.6"/><circle cx="1180" cy="196" r="1.6"/><circle cx="20" cy="240" r="1.6"/><circle cx="60" cy="240" r="1.6"/><circle cx="100" cy="240" r="1.6"/><circle cx="140" cy="240" r="1.6"/><circle cx="180" cy="240" r="1.6"/><circle cx="220" cy="240" r="1.6"/><circle cx="260" cy="240" r="1.6"/><circle cx="300" cy="240" r="1.6"/><circle cx="340" cy="240" r="1.6"/><circle cx="380" cy="240" r="1.6"/><circle cx="420" cy="240" r="1.6"/><circle cx="460" cy="240" r="1.6"/><circle cx="500" cy="240" r="1.6"/><circle cx="540" cy="240" r="1.6"/><circle cx="580" cy="240" r="1.6"/><circle cx="620" cy="240" r="1.6"/><circle cx="660" cy="240" r="1.6"/><circle cx="700" cy="240" r="1.6"/><circle cx="740" cy="240" r="1.6"/><circle cx="780" cy="240" r="1.6"/><circle cx="820" cy="240" r="1.6"/><circle cx="860" cy="240" r="1.6"/><circle cx="900" cy="240" r="1.6"/><circle cx="940" cy="240" r="1.6"/><circle cx="980" cy="240" r="1.6"/><circle cx="1020" cy="240" r="1.6"/><circle cx="1060" cy="240" r="1.6"/><circle cx="1100" cy="240" r="1.6"/><circle cx="1140" cy="240" r="1.6"/><circle cx="1180" cy="240" r="1.6"/><circle cx="20" cy="284" r="1.6"/><circle cx="60" cy="284" r="1.6"/><circle cx="100" cy="284" r="1.6"/><circle cx="140" cy="284" r="1.6"/><circle cx="180" cy="284" r="1.6"/><circle cx="220" cy="284" r="1.6"/><circle cx="260" cy="284" r="1.6"/><circle cx="300" cy="284" r="1.6"/><circle cx="340" cy="284" r="1.6"/><circle cx="380" cy="284" r="1.6"/><circle cx="420" cy="284" r="1.6"/><circle cx="460" cy="284" r="1.6"/><circle cx="500" cy="284" r="1.6"/><circle cx="540" cy="284" r="1.6"/><circle cx="580" cy="284" r="1.6"/><circle cx="620" cy="284" r="1.6"/><circle cx="660" cy="284" r="1.6"/><circle cx="700" cy="284" r="1.6"/><circle cx="740" cy="284" r="1.6"/><circle cx="780" cy="284" r="1.6"/><circle cx="820" cy="284" r="1.6"/><circle cx="860" cy="284" r="1.6"/><circle cx="900" cy="284" r="1.6"/><circle cx="940" cy="284" r="1.6"/><circle cx="980" cy="284" r="1.6"/><circle cx="1020" cy="284" r="1.6"/><circle cx="1060" cy="284" r="1.6"/><circle cx="1100" cy="284" r="1.6"/><circle cx="1140" cy="284" r="1.6"/><circle cx="1180" cy="284" r="1.6"/><circle cx="20" cy="328" r="1.6"/><circle cx="60" cy="328" r="1.6"/><circle cx="100" cy="328" r="1.6"/><circle cx="140" cy="328" r="1.6"/><circle cx="180" cy="328" r="1.6"/><circle cx="220" cy="328" r="1.6"/><circle cx="260" cy="328" r="1.6"/><circle cx="300" cy="328" r="1.6"/><circle cx="340" cy="328" r="1.6"/><circle cx="380" cy="328" r="1.6"/><circle cx="420" cy="328" r="1.6"/><circle cx="460" cy="328" r="1.6"/><circle cx="500" cy="328" r="1.6"/><circle cx="540" cy="328" r="1.6"/><circle cx="580" cy="328" r="1.6"/><circle cx="620" cy="328" r="1.6"/><circle cx="660" cy="328" r="1.6"/><circle cx="700" cy="328" r="1.6"/><circle cx="740" cy="328" r="1.6"/><circle cx="780" cy="328" r="1.6"/><circle cx="820" cy="328" r="1.6"/><circle cx="860" cy="328" r="1.6"/><circle cx="900" cy="328" r="1.6"/><circle cx="940" cy="328" r="1.6"/><circle cx="980" cy="328" r="1.6"/><circle cx="1020" cy="328" r="1.6"/><circle cx="1060" cy="328" r="1.6"/><circle cx="1100" cy="328" r="1.6"/><circle cx="1140" cy="328" r="1.6"/><circle cx="1180" cy="328" r="1.6"/><circle cx="20" cy="372" r="1.6"/><circle cx="60" cy="372" r="1.6"/><circle cx="100" cy="372" r="1.6"/><circle cx="140" cy="372" r="1.6"/><circle cx="180" cy="372" r="1.6"/><circle cx="220" cy="372" r="1.6"/><circle cx="260" cy="372" r="1.6"/><circle cx="300" cy="372" r="1.6"/><circle cx="340" cy="372" r="1.6"/><circle cx="380" cy="372" r="1.6"/><circle cx="420" cy="372" r="1.6"/><circle cx="460" cy="372" r="1.6"/><circle cx="500" cy="372" r="1.6"/><circle cx="540" cy="372" r="1.6"/><circle cx="580" cy="372" r="1.6"/><circle cx="620" cy="372" r="1.6"/><circle cx="660" cy="372" r="1.6"/><circle cx="700" cy="372" r="1.6"/><circle cx="740" cy="372" r="1.6"/><circle cx="780" cy="372" r="1.6"/><circle cx="820" cy="372" r="1.6"/><circle cx="860" cy="372" r="1.6"/><circle cx="900" cy="372" r="1.6"/><circle cx="940" cy="372" r="1.6"/><circle cx="980" cy="372" r="1.6"/><circle cx="1020" cy="372" r="1.6"/><circle cx="1060" cy="372" r="1.6"/><circle cx="1100" cy="372" r="1.6"/><circle cx="1140" cy="372" r="1.6"/><circle cx="1180" cy="372" r="1.6"/><circle cx="20" cy="416" r="1.6"/><circle cx="60" cy="416" r="1.6"/><circle cx="100" cy="416" r="1.6"/><circle cx="140" cy="416" r="1.6"/><circle cx="180" cy="416" r="1.6"/><circle cx="220" cy="416" r="1.6"/><circle cx="260" cy="416" r="1.6"/><circle cx="300" cy="416" r="1.6"/><circle cx="340" cy="416" r="1.6"/><circle cx="380" cy="416" r="1.6"/><circle cx="420" cy="416" r="1.6"/><circle cx="460" cy="416" r="1.6"/><circle cx="500" cy="416" r="1.6"/><circle cx="540" cy="416" r="1.6"/><circle cx="580" cy="416" r="1.6"/><circle cx="620" cy="416" r="1.6"/><circle cx="660" cy="416" r="1.6"/><circle cx="700" cy="416" r="1.6"/><circle cx="740" cy="416" r="1.6"/><circle cx="780" cy="416" r="1.6"/><circle cx="820" cy="416" r="1.6"/><circle cx="860" cy="416" r="1.6"/><circle cx="900" cy="416" r="1.6"/><circle cx="940" cy="416" r="1.6"/><circle cx="980" cy="416" r="1.6"/><circle cx="1020" cy="416" r="1.6"/><circle cx="1060" cy="416" r="1.6"/><circle cx="1100" cy="416" r="1.6"/><circle cx="1140" cy="416" r="1.6"/><circle cx="1180" cy="416" r="1.6"/><circle cx="20" cy="460" r="1.6"/><circle cx="60" cy="460" r="1.6"/><circle cx="100" cy="460" r="1.6"/><circle cx="140" cy="460" r="1.6"/><circle cx="180" cy="460" r="1.6"/><circle cx="220" cy="460" r="1.6"/><circle cx="260" cy="460" r="1.6"/><circle cx="300" cy="460" r="1.6"/><circle cx="340" cy="460" r="1.6"/><circle cx="380" cy="460" r="1.6"/><circle cx="420" cy="460" r="1.6"/><circle cx="460" cy="460" r="1.6"/><circle cx="500" cy="460" r="1.6"/><circle cx="540" cy="460" r="1.6"/><circle cx="580" cy="460" r="1.6"/><circle cx="620" cy="460" r="1.6"/><circle cx="660" cy="460" r="1.6"/><circle cx="700" cy="460" r="1.6"/><circle cx="740" cy="460" r="1.6"/><circle cx="780" cy="460" r="1.6"/><circle cx="820" cy="460" r="1.6"/><circle cx="860" cy="460" r="1.6"/><circle cx="900" cy="460" r="1.6"/><circle cx="940" cy="460" r="1.6"/><circle cx="980" cy="460" r="1.6"/><circle cx="1020" cy="460" r="1.6"/><circle cx="1060" cy="460" r="1.6"/><circle cx="1100" cy="460" r="1.6"/><circle cx="1140" cy="460" r="1.6"/><circle cx="1180" cy="460" r="1.6"/><circle cx="20" cy="504" r="1.6"/><circle cx="60" cy="504" r="1.6"/><circle cx="100" cy="504" r="1.6"/><circle cx="140" cy="504" r="1.6"/><circle cx="180" cy="504" r="1.6"/><circle cx="220" cy="504" r="1.6"/><circle cx="260" cy="504" r="1.6"/><circle cx="300" cy="504" r="1.6"/><circle cx="340" cy="504" r="1.6"/><circle cx="380" cy="504" r="1.6"/><circle cx="420" cy="504" r="1.6"/><circle cx="460" cy="504" r="1.6"/><circle cx="500" cy="504" r="1.6"/><circle cx="540" cy="504" r="1.6"/><circle cx="580" cy="504" r="1.6"/><circle cx="620" cy="504" r="1.6"/><circle cx="660" cy="504" r="1.6"/><circle cx="700" cy="504" r="1.6"/><circle cx="740" cy="504" r="1.6"/><circle cx="780" cy="504" r="1.6"/><circle cx="820" cy="504" r="1.6"/><circle cx="860" cy="504" r="1.6"/><circle cx="900" cy="504" r="1.6"/><circle cx="940" cy="504" r="1.6"/><circle cx="980" cy="504" r="1.6"/><circle cx="1020" cy="504" r="1.6"/><circle cx="1060" cy="504" r="1.6"/><circle cx="1100" cy="504" r="1.6"/><circle cx="1140" cy="504" r="1.6"/><circle cx="1180" cy="504" r="1.6"/><circle cx="20" cy="548" r="1.6"/><circle cx="60" cy="548" r="1.6"/><circle cx="100" cy="548" r="1.6"/><circle cx="140" cy="548" r="1.6"/><circle cx="180" cy="548" r="1.6"/><circle cx="220" cy="548" r="1.6"/><circle cx="260" cy="548" r="1.6"/><circle cx="300" cy="548" r="1.6"/><circle cx="340" cy="548" r="1.6"/><circle cx="380" cy="548" r="1.6"/><circle cx="420" cy="548" r="1.6"/><circle cx="460" cy="548" r="1.6"/><circle cx="500" cy="548" r="1.6"/><circle cx="540" cy="548" r="1.6"/><circle cx="580" cy="548" r="1.6"/><circle cx="620" cy="548" r="1.6"/><circle cx="660" cy="548" r="1.6"/><circle cx="700" cy="548" r="1.6"/><circle cx="740" cy="548" r="1.6"/><circle cx="780" cy="548" r="1.6"/><circle cx="820" cy="548" r="1.6"/><circle cx="860" cy="548" r="1.6"/><circle cx="900" cy="548" r="1.6"/><circle cx="940" cy="548" r="1.6"/><circle cx="980" cy="548" r="1.6"/><circle cx="1020" cy="548" r="1.6"/><circle cx="1060" cy="548" r="1.6"/><circle cx="1100" cy="548" r="1.6"/><circle cx="1140" cy="548" r="1.6"/><circle cx="1180" cy="548" r="1.6"/><circle cx="20" cy="592" r="1.6"/><circle cx="60" cy="592" r="1.6"/><circle cx="100" cy="592" r="1.6"/><circle cx="140" cy="592" r="1.6"/><circle cx="180" cy="592" r="1.6"/><circle cx="220" cy="592" r="1.6"/><circle cx="260" cy="592" r="1.6"/><circle cx="300" cy="592" r="1.6"/><circle cx="340" cy="592" r="1.6"/><circle cx="380" cy="592" r="1.6"/><circle cx="420" cy="592" r="1.6"/><circle cx="460" cy="592" r="1.6"/><circle cx="500" cy="592" r="1.6"/><circle cx="540" cy="592" r="1.6"/><circle cx="580" cy="592" r="1.6"/><circle cx="620" cy="592" r="1.6"/><circle cx="660" cy="592" r="1.6"/><circle cx="700" cy="592" r="1.6"/><circle cx="740" cy="592" r="1.6"/><circle cx="780" cy="592" r="1.6"/><circle cx="820" cy="592" r="1.6"/><circle cx="860" cy="592" r="1.6"/><circle cx="900" cy="592" r="1.6"/><circle cx="940" cy="592" r="1.6"/><circle cx="980" cy="592" r="1.6"/><circle cx="1020" cy="592" r="1.6"/><circle cx="1060" cy="592" r="1.6"/><circle cx="1100" cy="592" r="1.6"/><circle cx="1140" cy="592" r="1.6"/><circle cx="1180" cy="592" r="1.6"/><circle cx="20" cy="636" r="1.6"/><circle cx="60" cy="636" r="1.6"/><circle cx="100" cy="636" r="1.6"/><circle cx="140" cy="636" r="1.6"/><circle cx="180" cy="636" r="1.6"/><circle cx="220" cy="636" r="1.6"/><circle cx="260" cy="636" r="1.6"/><circle cx="300" cy="636" r="1.6"/><circle cx="340" cy="636" r="1.6"/><circle cx="380" cy="636" r="1.6"/><circle cx="420" cy="636" r="1.6"/><circle cx="460" cy="636" r="1.6"/><circle cx="500" cy="636" r="1.6"/><circle cx="540" cy="636" r="1.6"/><circle cx="580" cy="636" r="1.6"/><circle cx="620" cy="636" r="1.6"/><circle cx="660" cy="636" r="1.6"/><circle cx="700" cy="636" r="1.6"/><circle cx="740" cy="636" r="1.6"/><circle cx="780" cy="636" r="1.6"/><circle cx="820" cy="636" r="1.6"/><circle cx="860" cy="636" r="1.6"/><circle cx="900" cy="636" r="1.6"/><circle cx="940" cy="636" r="1.6"/><circle cx="980" cy="636" r="1.6"/><circle cx="1020" cy="636" r="1.6"/><circle cx="1060" cy="636" r="1.6"/><circle cx="1100" cy="636" r="1.6"/><circle cx="1140" cy="636" r="1.6"/><circle cx="1180" cy="636" r="1.6"/><circle cx="20" cy="680" r="1.6"/><circle cx="60" cy="680" r="1.6"/><circle cx="100" cy="680" r="1.6"/><circle cx="140" cy="680" r="1.6"/><circle cx="180" cy="680" r="1.6"/><circle cx="220" cy="680" r="1.6"/><circle cx="260" cy="680" r="1.6"/><circle cx="300" cy="680" r="1.6"/><circle cx="340" cy="680" r="1.6"/><circle cx="380" cy="680" r="1.6"/><circle cx="420" cy="680" r="1.6"/><circle cx="460" cy="680" r="1.6"/><circle cx="500" cy="680" r="1.6"/><circle cx="540" cy="680" r="1.6"/><circle cx="580" cy="680" r="1.6"/><circle cx="620" cy="680" r="1.6"/><circle cx="660" cy="680" r="1.6"/><circle cx="700" cy="680" r="1.6"/><circle cx="740" cy="680" r="1.6"/><circle cx="780" cy="680" r="1.6"/><circle cx="820" cy="680" r="1.6"/><circle cx="860" cy="680" r="1.6"/><circle cx="900" cy="680" r="1.6"/><circle cx="940" cy="680" r="1.6"/><circle cx="980" cy="680" r="1.6"/><circle cx="1020" cy="680" r="1.6"/><circle cx="1060" cy="680" r="1.6"/><circle cx="1100" cy="680" r="1.6"/><circle cx="1140" cy="680" r="1.6"/><circle cx="1180" cy="680" r="1.6"/><circle cx="20" cy="724" r="1.6"/><circle cx="60" cy="724" r="1.6"/><circle cx="100" cy="724" r="1.6"/><circle cx="140" cy="724" r="1.6"/><circle cx="180" cy="724" r="1.6"/><circle cx="220" cy="724" r="1.6"/><circle cx="260" cy="724" r="1.6"/><circle cx="300" cy="724" r="1.6"/><circle cx="340" cy="724" r="1.6"/><circle cx="380" cy="724" r="1.6"/><circle cx="420" cy="724" r="1.6"/><circle cx="460" cy="724" r="1.6"/><circle cx="500" cy="724" r="1.6"/><circle cx="540" cy="724" r="1.6"/><circle cx="580" cy="724" r="1.6"/><circle cx="620" cy="724" r="1.6"/><circle cx="660" cy="724" r="1.6"/><circle cx="700" cy="724" r="1.6"/><circle cx="740" cy="724" r="1.6"/><circle cx="780" cy="724" r="1.6"/><circle cx="820" cy="724" r="1.6"/><circle cx="860" cy="724" r="1.6"/><circle cx="900" cy="724" r="1.6"/><circle cx="940" cy="724" r="1.6"/><circle cx="980" cy="724" r="1.6"/><circle cx="1020" cy="724" r="1.6"/><circle cx="1060" cy="724" r="1.6"/><circle cx="1100" cy="724" r="1.6"/><circle cx="1140" cy="724" r="1.6"/><circle cx="1180" cy="724" r="1.6"/></g>
  <line x1="710" y1="80" x2="710" y2="650" stroke="#e4e4e7" stroke-width="2"/>
  <rect x="80" y="88" width="44" height="8" fill="#15803d"/>
  <text x="80" y="132" font-family="ui-monospace, Menlo, Consolas, monospace" font-size="23" letter-spacing="4" fill="#63636b">ENGINEERING NOTEBOOK</text>
  <text x="1120" y="132" text-anchor="end" font-family="ui-monospace, Menlo, Consolas, monospace" font-size="23" fill="#63636b">TUTORIAL</text>
    <text x="80" y="210" font-family="Georgia, 'Times New Roman', serif" font-size="62" font-weight="700" fill="#18181b">API, security,</text>
    <text x="80" y="282" font-family="Georgia, 'Times New Roman', serif" font-size="62" font-weight="700" fill="#18181b">testing, and</text>
    <text x="80" y="354" font-family="Georgia, 'Times New Roman', serif" font-size="62" font-weight="700" fill="#18181b">capstone</text>
  <text x="80" y="664" font-family="ui-monospace, Menlo, Consolas, monospace" font-size="23" fill="#63636b">2026-09-05 · 6 sections</text>
  <polygon points="810,332 856,380 810,428 764,380" fill="#fff" stroke="#18181b" stroke-width="3"/><polyline points="794,380 806,392 828,366" fill="none" stroke="#18181b" stroke-width="4" opacity="0.55"/><polygon points="935,332 981,380 935,428 889,380" fill="#fff" stroke="#18181b" stroke-width="3"/><polyline points="919,380 931,392 953,366" fill="none" stroke="#18181b" stroke-width="4" opacity="0.55"/><polygon points="1060,332 1106,380 1060,428 1014,380" fill="#fff" stroke="#18181b" stroke-width="3"/><polyline points="1044,380 1056,392 1078,366" fill="none" stroke="#15803d" stroke-width="4" opacity="1"/>
</svg>
